<svg width="26" height="17" viewBox="0 0 26 17" fill="none" xmlns="http://www.w3.org/2000/svg">
<path d="M8.59259 3.55095L5.54302 15.0056C5.44318 15.3806 4.91599 15.3941 4.79705 15.0248L3.07379 9.67312L1.10858 3.5701C1.02774 3.31903 1.21499 3.06201 1.47875 3.06201H8.21679C8.47223 3.06201 8.6583 3.3041 8.59259 3.55095Z" fill="#264187"/>
<path d="M5.52148 15.5723L2.35559 2.09082H21.0344L13.7528 15.5723H5.52148Z" fill="#7B96DC"/>
<path d="M6.15463 15.5723L3.14703 2.09082H21.5899L14.8608 15.5723H6.15463Z" fill="#9CB1E5"/>
<path d="M6.78809 15.5723L3.78049 2.09082H21.5095L15.8109 15.5723H6.78809Z" fill="#BDCBEE"/>
<path d="M4.74171 14.8119L6.82863 3.52039C6.8968 3.1516 7.21842 2.88397 7.59346 2.88397H17.0553C17.2711 2.88397 17.4773 2.79427 17.6244 2.63633L19.3792 0.752525C19.5263 0.594583 19.7324 0.504883 19.9483 0.504883H24.8174C25.3138 0.504883 25.6832 0.963586 25.5773 1.44856L22.5927 15.1191C22.5147 15.4764 22.1985 15.731 21.8328 15.731H5.50654C5.02036 15.731 4.65335 15.29 4.74171 14.8119Z" fill="#3962CB"/>
<g clip-path="url(#clip0_754_194)">
<path d="M12.7165 7.61082C12.9148 6.65415 14.0931 5.93471 15.2131 7.20637C16.8115 5.37471 18.5187 7.64582 17.3598 8.81637L15.2131 10.7958L13.957 9.62915" stroke="white" stroke-width="0.388889" stroke-linecap="round" stroke-linejoin="round"/>
<path d="M12.6855 8.65668H13.6577L14.241 7.87891L15.0188 9.24002L15.6021 8.46224H16.1855" stroke="white" stroke-width="0.388889" stroke-linecap="round" stroke-linejoin="round"/>
</g>
<defs>
<clipPath id="clip0_754_194">
<rect width="5.44445" height="5.44445" fill="white" transform="translate(12.491 5.93457)"/>
</clipPath>
</defs>
</svg>
